<?xml version="1.0" standalone="no"?>
<!DOCTYPE svg PUBLIC "-//W3C//DTD SVG 20010904//EN"
 "http://www.w3.org/TR/2001/REC-SVG-20010904/DTD/svg10.dtd">
<svg version="1.0" xmlns="http://www.w3.org/2000/svg"
 width="500.000000pt" height="500.000000pt" viewBox="0 0 500.000000 500.000000"
 preserveAspectRatio="xMidYMid meet">

<g transform="translate(0.000000,500.000000) scale(0.100000,-0.100000)"
fill="#000000" stroke="none">
<path d="M2370 4644 c-154 -26 -218 -55 -257 -117 -15 -23 -28 -44 -30 -46 -1
-2 -46 -10 -100 -18 -196 -28 -384 -89 -483 -155 -65 -43 -141 -136 -161 -195
-7 -21 -17 -63 -23 -93 -10 -49 -14 -55 -41 -60 -73 -16 -142 -76 -166 -147
-9 -24 -13 -89 -14 -178 0 -122 3 -146 21 -186 29 -61 78 -106 141 -126 52
-16 52 -17 63 -69 17 -79 64 -166 119 -217 90 -85 273 -157 501 -199 66 -12
117 -25 112 -29 -4 -4 -32 -14 -62 -24 -67 -21 -206 -93 -257 -133 -32 -25
-49 -31 -111 -35 -267 -17 -507 -348 -649 -897 -68 -264 -51 -410 57 -502 92
-80 214 -75 313 12 81 71 123 178 167 425 12 66 24 127 27 135 3 8 18 -32 33
-90 111 -416 305 -682 594 -815 102 -47 176 -65 301 -72 452 -24 799 255 970
781 l42 129 27 -138 c44 -225 104 -338 205 -389 69 -35 113 -40 179 -21 110
32 182 149 182 297 0 133 -104 496 -199 691 -67 141 -137 241 -223 323 -83 79
-155 117 -248 134 -49 9 -85 24 -143 61 -83 53 -134 78 -237 114 -73 26 -77
23 75 50 245 44 438 137 513 248 35 51 72 147 72 186 0 26 4 30 49 41 59 14
123 66 153 124 19 36 22 58 22 191 1 140 -1 153 -24 199 -31 61 -84 105 -147
121 l-47 12 -11 64 c-36 224 -220 352 -608 423 l-118 22 -22 39 c-29 51 -87
90 -162 111 -58 15 -337 28 -395 18z m357 -48 c34 -7 78 -22 99 -33 36 -18 83
-68 73 -77 -2 -2 -51 1 -109 6 -58 6 -228 8 -377 6 -150 -2 -273 -2 -273 2 0
10 52 56 78 70 75 38 379 54 509 26z m129 -151 c321 -32 561 -106 669 -206 55
-51 90 -110 110 -185 19 -73 22 -710 4 -796 -34 -157 -142 -259 -349 -326
-442 -144 -1255 -133 -1649 22 -133 53 -210 120 -259 224 l-27 57 -3 394 c-3
371 -2 398 17 453 41 121 123 197 276 258 131 52 354 96 565 113 127 10 519 5
646 -8z m-1546 -805 c0 -320 4 -304 -63 -276 -43 17 -93 76 -106 123 -14 48
-14 257 -1 304 14 50 67 107 115 124 22 8 43 14 48 15 4 0 7 -130 7 -290z
m2474 252 c65 -45 80 -87 84 -232 4 -145 -6 -195 -50 -246 -29 -33 -84 -64
-114 -64 -12 0 -14 50 -14 290 l0 290 28 -6 c15 -3 45 -18 66 -32z m-1314
-1097 c146 0 303 4 349 8 l83 8 -4 -64 c-5 -81 -33 -121 -116 -165 -188 -101
-489 -72 -606 58 -34 37 -36 45 -36 105 l0 65 33 -7 c17 -4 151 -8 297 -8z
m-370 -67 c0 -109 105 -196 283 -234 178 -37 390 8 491 104 46 44 66 87 66
142 0 22 1 40 3 40 11 0 150 -51 192 -71 167 -77 297 -216 335 -358 25 -93 7
-434 -31 -598 -113 -486 -363 -791 -726 -884 -159 -40 -386 -19 -533 49 -275
128 -485 415 -571 782 -49 204 -73 511 -50 622 33 156 146 290 318 377 72 36
204 82 215 75 4 -3 8 -23 8 -46z m-460 -144 c0 -4 -18 -33 -39 -65 -66 -99
-83 -157 -88 -294 -2 -66 0 -160 4 -210 6 -63 5 -108 -4 -150 -7 -33 -28 -143
-48 -245 -38 -197 -67 -278 -124 -342 -88 -101 -240 -103 -315 -5 -84 110 -73
293 39 632 42 129 135 326 196 417 54 79 150 176 209 211 54 31 170 66 170 51z
m1887 -50 c192 -112 357 -404 465 -823 35 -140 39 -166 36 -251 -3 -82 -8
-102 -32 -147 -94 -171 -308 -139 -396 59 -26 60 -44 133 -76 306 -25 139 -26
152 -15 257 7 60 13 171 13 245 2 173 -16 237 -98 353 -19 26 -34 49 -34 52 0
9 92 -25 137 -51z"/>
<path d="M2260 4214 c-290 -25 -487 -68 -625 -136 -76 -37 -127 -87 -157 -152
-22 -50 -23 -58 -23 -366 l0 -315 27 -51 c70 -133 246 -212 579 -261 158 -23
740 -26 884 -5 307 46 507 120 579 214 53 70 56 95 56 428 l0 307 -31 61 c-16
34 -45 73 -62 88 -82 70 -292 137 -527 169 -119 16 -585 29 -700 19z m-149
-484 c75 -39 132 -169 96 -223 -15 -23 -17 -23 -201 -23 -208 1 -206 0 -206
69 0 154 168 249 311 177z m972 19 c46 -13 109 -67 131 -113 19 -41 21 -131 4
-143 -7 -4 -95 -8 -196 -9 -205 -1 -202 -2 -202 73 1 78 61 161 136 188 48 17
77 18 127 4z m-439 -455 c9 -22 -18 -77 -49 -102 -39 -31 -86 -37 -129 -17
-52 25 -94 103 -69 128 3 4 59 7 124 7 96 0 118 -3 123 -16z"/>
</g>
</svg>
